<svg width="39" height="38" viewBox="0 0 39 38" fill="none" xmlns="http://www.w3.org/2000/svg">
<path fill-rule="evenodd" clip-rule="evenodd" d="M4.14896 0.25C3.75521 0.25 3.40417 0.522917 3.26875 0.933333L0.864583 8.23646C0.788673 8.46741 0.749994 8.70897 0.75 8.95208V11.8573C0.75 13.5 1.94896 14.8333 3.42812 14.8333C4.90729 14.8333 6.10729 13.5 6.10729 11.8573C6.10729 13.501 7.30625 14.8333 8.78542 14.8333C10.2646 14.8333 11.4646 13.5 11.4646 11.8573C11.4646 13.501 12.6635 14.8333 14.1427 14.8333C15.6219 14.8333 16.8198 13.5021 16.8219 11.8594C16.8219 13.5021 18.0208 14.8333 19.5 14.8333C20.9792 14.8333 22.1781 13.5 22.1781 11.8573C22.1781 13.501 23.3781 14.8333 24.8573 14.8333C26.3365 14.8333 27.5344 13.5021 27.5354 11.8594C27.5365 13.5021 28.7354 14.8333 30.2146 14.8333C31.6937 14.8333 32.8927 13.5 32.8927 11.8573C32.8927 13.501 34.0917 14.8333 35.5719 14.8333C37.051 14.8333 38.25 13.5 38.25 11.8573V8.95208C38.25 8.70897 38.2113 8.46741 38.1354 8.23646L35.7313 0.934375C35.5958 0.522917 35.2448 0.25 34.851 0.25H4.14896Z" fill="#2C5C73"/>
<path fill-rule="evenodd" clip-rule="evenodd" d="M4.91699 16.1149V24.2087H2.31283C2.17469 24.2087 2.04222 24.2635 1.94454 24.3612C1.84687 24.4589 1.79199 24.5914 1.79199 24.7295V25.7712C1.79199 25.9093 1.84687 26.0418 1.94454 26.1394C2.04222 26.2371 2.17469 26.292 2.31283 26.292H36.6878C36.826 26.292 36.9584 26.2371 37.0561 26.1394C37.1538 26.0418 37.2087 25.9093 37.2087 25.7712V24.7295C37.2087 24.5914 37.1538 24.4589 37.0561 24.3612C36.9584 24.2635 36.826 24.2087 36.6878 24.2087H34.0837V16.1149C33.6476 15.9411 33.2448 15.6934 32.893 15.3826C32.623 15.6208 32.3229 15.8225 32.0003 15.9826V24.2087H7.00033V15.9826C6.6778 15.8225 6.37767 15.6208 6.10762 15.3826C5.75762 15.6899 5.35762 15.9399 4.91699 16.1149ZM32.0003 14.0764C32.0889 13.9878 32.1722 13.893 32.2503 13.792H32.0003V14.0764ZM33.5357 13.792C33.6932 13.996 33.8775 14.1779 34.0837 14.3326V13.792H33.5357ZM4.91699 14.3326C5.12416 14.1791 5.30862 13.9971 5.46491 13.792H4.91699V14.3326ZM6.75033 13.792H7.00033V14.0764C6.91085 13.9872 6.82733 13.8922 6.75033 13.792ZM3.35449 28.3753C3.21636 28.3753 3.08388 28.4302 2.98621 28.5279C2.88853 28.6256 2.83366 28.758 2.83366 28.8962V36.7087C2.83366 36.9849 2.94341 37.2499 3.13876 37.4452C3.33411 37.6406 3.59906 37.7503 3.87533 37.7503H35.1253C35.4016 37.7503 35.6665 37.6406 35.8619 37.4452C36.0572 37.2499 36.167 36.9849 36.167 36.7087V28.8962C36.167 28.758 36.1121 28.6256 36.0144 28.5279C35.9168 28.4302 35.7843 28.3753 35.6462 28.3753H3.35449Z" fill="#2C5C73"/>
<path d="M12.7288 21.083H9.60384C9.31619 21.083 9.08301 21.3162 9.08301 21.6038V23.6872C9.08301 23.9748 9.31619 24.208 9.60384 24.208H12.7288C13.0165 24.208 13.2497 23.9748 13.2497 23.6872V21.6038C13.2497 21.3162 13.0165 21.083 12.7288 21.083Z" fill="#2C5C73"/>
<path d="M14.8128 22.125H11.6878C11.4002 22.125 11.167 22.3582 11.167 22.6458V23.6875C11.167 23.9751 11.4002 24.2083 11.6878 24.2083H14.8128C15.1005 24.2083 15.3337 23.9751 15.3337 23.6875V22.6458C15.3337 22.3582 15.1005 22.125 14.8128 22.125Z" fill="#2C5C73"/>
<path d="M17.9375 24.208C18.8004 24.208 19.5 23.5085 19.5 22.6455C19.5 21.7826 18.8004 21.083 17.9375 21.083C17.0746 21.083 16.375 21.7826 16.375 22.6455C16.375 23.5085 17.0746 24.208 17.9375 24.208Z" fill="#2C5C73"/>
</svg>
