<svg width="34" height="28" viewBox="0 0 34 28" fill="none" xmlns="http://www.w3.org/2000/svg">
<mask id="mask0_261_1590" style="mask-type:luminance" maskUnits="userSpaceOnUse" x="0" y="0" width="34" height="28">
<path d="M32 13.9882C31.0888 17.5057 26.0285 20.3384 23.75 20.7382C21.9275 25.2157 17.0285 25.6379 14.75 25.2382L17.75 20.7382C14.408 20.4179 10.2688 16.9537 8.75 15.4882C6.7895 17.6257 3.6455 19.2982 2 19.9649C4.7345 14.2087 3.13925 8.96991 2 7.23816C4.12625 7.23816 7.35725 9.65616 8.75 10.9882C10.2688 9.38916 15.4715 7.15416 17.75 6.48816L14.75 2.73816C20.522 2.09841 23.117 4.88916 23.75 6.48816C29.522 7.76766 31.7465 12.2557 32 13.9882Z" fill="white" stroke="white" stroke-width="4" stroke-linecap="round" stroke-linejoin="round"/>
<path d="M26 15.4883C26.8284 15.4883 27.5 14.8167 27.5 13.9883C27.5 13.1599 26.8284 12.4883 26 12.4883C25.1716 12.4883 24.5 13.1599 24.5 13.9883C24.5 14.8167 25.1716 15.4883 26 15.4883Z" fill="black"/>
</mask>
<g mask="url(#mask0_261_1590)">
<path d="M-1 -4.01172H35V31.9883H-1V-4.01172Z" fill="#2C5C73"/>
</g>
</svg>
