<svg width="46" height="46" viewBox="0 0 46 46" fill="none" xmlns="http://www.w3.org/2000/svg">
<path d="M23.9375 3.3125C20.6187 3.3125 17.6938 5.50625 16.7563 8.69375C15.7625 8.24375 14.7125 8 13.625 8C11.6359 8 9.72822 8.79018 8.3217 10.1967C6.91518 11.6032 6.125 13.5109 6.125 15.5C6.12944 17.1609 6.68374 18.7737 7.70135 20.0864C8.71896 21.3991 10.1426 22.3379 11.75 22.7563V36.125H36.125V22.7563C39.425 21.8937 41.75 18.9125 41.75 15.5C41.75 13.5109 40.9598 11.6032 39.5533 10.1967C38.1468 8.79018 36.2391 8 34.25 8C33.1625 8 32.1125 8.24375 31.1187 8.69375C30.1812 5.50625 27.2563 3.3125 23.9375 3.3125ZM23 20.1875H24.875V33.3125H23V20.1875ZM17.375 23.9375H19.25V33.3125H17.375V23.9375ZM28.625 23.9375H30.5V33.3125H28.625V23.9375ZM11.75 38V39.875C11.75 40.3723 11.9475 40.8492 12.2992 41.2008C12.6508 41.5525 13.1277 41.75 13.625 41.75H34.25C34.7473 41.75 35.2242 41.5525 35.5758 41.2008C35.9275 40.8492 36.125 40.3723 36.125 39.875V38H11.75Z" fill="#2C5C73"/>
</svg>
