<svg width="36" height="36" viewBox="0 0 36 36" fill="none" xmlns="http://www.w3.org/2000/svg">
<path d="M30 19.5002V30.0002C30 30.3981 29.842 30.7796 29.5607 31.0609C29.2794 31.3422 28.8978 31.5002 28.5 31.5002H7.5C7.10218 31.5002 6.72064 31.3422 6.43934 31.0609C6.15804 30.7796 6 30.3981 6 30.0002V19.5002H30ZM21.75 3.00025C22.636 2.99995 23.5076 3.22386 24.2837 3.65114C25.0599 4.07843 25.7152 4.69517 26.1888 5.44395C26.6624 6.19273 26.9388 7.04917 26.9922 7.93353C27.0457 8.81789 26.8745 9.70139 26.4945 10.5017L31.5 10.5002C31.8978 10.5002 32.2794 10.6583 32.5607 10.9396C32.842 11.2209 33 11.6024 33 12.0002V16.5002C33 16.8981 32.842 17.2796 32.5607 17.5609C32.2794 17.8422 31.8978 18.0002 31.5 18.0002H4.5C4.10218 18.0002 3.72064 17.8422 3.43934 17.5609C3.15804 17.2796 3 16.8981 3 16.5002V12.0002C3 11.6024 3.15804 11.2209 3.43934 10.9396C3.72064 10.6583 4.10218 10.5002 4.5 10.5002L9.5055 10.5017C8.97113 9.37926 8.85244 8.10356 9.17055 6.90175C9.48866 5.69994 10.2229 4.65002 11.2426 3.93888C12.2624 3.22774 13.5014 2.90154 14.739 3.01835C15.9767 3.13516 17.1328 3.6874 18.0015 4.57675C18.4891 4.07654 19.072 3.67927 19.7159 3.40847C20.3598 3.13767 21.0515 2.99886 21.75 3.00025ZM14.25 6.00025C13.6722 6.00054 13.1166 6.22311 12.6984 6.62186C12.2802 7.02061 12.0315 7.56496 12.0037 8.14212C11.9759 8.71928 12.1713 9.285 12.5493 9.72205C12.9272 10.1591 13.4589 10.434 14.034 10.4897L14.25 10.5002H16.5V8.25025C16.5 7.69093 16.2916 7.15166 15.9156 6.73762C15.5395 6.32358 15.0227 6.06445 14.466 6.01075L14.25 6.00025ZM21.75 6.00025L21.534 6.01075C21.0141 6.06056 20.5277 6.28972 20.1582 6.65891C19.7887 7.02811 19.5592 7.51435 19.509 8.03425L19.5 8.25025V10.5002H21.75L21.966 10.4897C22.5225 10.4358 23.039 10.1765 23.4149 9.76253C23.7907 9.34852 23.9989 8.8094 23.9989 8.25025C23.9989 7.6911 23.7907 7.15198 23.4149 6.73797C23.039 6.32395 22.5225 6.06471 21.966 6.01075L21.75 6.00025Z" fill="#2C5C73"/>
</svg>
