<svg width="24" height="27" viewBox="0 0 24 27" fill="none" xmlns="http://www.w3.org/2000/svg">
<path d="M20 26.8337C18.8889 26.8337 17.9444 26.4448 17.1667 25.667C16.3889 24.8892 16 23.9448 16 22.8337C16 22.6781 16.0111 22.5168 16.0333 22.3497C16.0556 22.1825 16.0889 22.0328 16.1333 21.9003L6.73333 16.4337C6.35556 16.767 5.93333 17.0283 5.46667 17.2177C5 17.407 4.51111 17.5012 4 17.5003C2.88889 17.5003 1.94444 17.1114 1.16667 16.3337C0.388889 15.5559 0 14.6114 0 13.5003C0 12.3892 0.388889 11.4448 1.16667 10.667C1.94444 9.88921 2.88889 9.50033 4 9.50033C4.51111 9.50033 5 9.59499 5.46667 9.78433C5.93333 9.97366 6.35556 10.2345 6.73333 10.567L16.1333 5.10033C16.0889 4.96699 16.0556 4.81721 16.0333 4.65099C16.0111 4.48477 16 4.32344 16 4.16699C16 3.05588 16.3889 2.11144 17.1667 1.33366C17.9444 0.555881 18.8889 0.166992 20 0.166992C21.1111 0.166992 22.0556 0.555881 22.8333 1.33366C23.6111 2.11144 24 3.05588 24 4.16699C24 5.2781 23.6111 6.22255 22.8333 7.00033C22.0556 7.7781 21.1111 8.16699 20 8.16699C19.4889 8.16699 19 8.07277 18.5333 7.88433C18.0667 7.69588 17.6444 7.43455 17.2667 7.10032L7.86667 12.567C7.91111 12.7003 7.94445 12.8505 7.96667 13.0177C7.98889 13.1848 8 13.3457 8 13.5003C8 13.6559 7.98889 13.8172 7.96667 13.9843C7.94445 14.1514 7.91111 14.3012 7.86667 14.4337L17.2667 19.9003C17.6444 19.567 18.0667 19.3061 18.5333 19.1177C19 18.9292 19.4889 18.8345 20 18.8337C21.1111 18.8337 22.0556 19.2225 22.8333 20.0003C23.6111 20.7781 24 21.7225 24 22.8337C24 23.9448 23.6111 24.8892 22.8333 25.667C22.0556 26.4448 21.1111 26.8337 20 26.8337Z" fill="#838382"/>
</svg>
