<svg width="38" height="39" viewBox="0 0 38 39" fill="none" xmlns="http://www.w3.org/2000/svg">
<path d="M11.5361 38.25C10.5049 38.25 9.62238 37.8831 8.88863 37.1494C8.15363 36.4144 7.78613 35.5312 7.78613 34.5C7.78613 33.4688 8.15363 32.5856 8.88863 31.8506C9.62238 31.1169 10.5049 30.75 11.5361 30.75C12.5674 30.75 13.4499 31.1169 14.1836 31.8506C14.9186 32.5856 15.2861 33.4688 15.2861 34.5C15.2861 35.5312 14.9186 36.4144 14.1836 37.1494C13.4499 37.8831 12.5674 38.25 11.5361 38.25ZM30.2861 38.25C29.2549 38.25 28.3724 37.8831 27.6386 37.1494C26.9036 36.4144 26.5361 35.5312 26.5361 34.5C26.5361 33.4688 26.9036 32.5856 27.6386 31.8506C28.3724 31.1169 29.2549 30.75 30.2861 30.75C31.3174 30.75 32.2005 31.1169 32.9355 31.8506C33.6693 32.5856 34.0361 33.4688 34.0361 34.5C34.0361 35.5312 33.6693 36.4144 32.9355 37.1494C32.2005 37.8831 31.3174 38.25 30.2861 38.25ZM8.16113 4.5H35.8174C36.5361 4.5 37.083 4.82 37.458 5.46C37.833 6.10125 37.8486 6.75 37.5049 7.40625L30.8486 19.4062C30.5049 20.0312 30.0436 20.5156 29.4649 20.8594C28.8874 21.2031 28.2549 21.375 27.5674 21.375H13.5986L11.5361 25.125H34.0361V28.875H11.5361C10.1299 28.875 9.06738 28.2575 8.34863 27.0225C7.62988 25.7887 7.59863 24.5625 8.25488 23.3438L10.7861 18.75L4.03613 4.5H0.286133V0.75H6.37988L8.16113 4.5Z" fill="#224859"/>
</svg>
