<svg width="400" height="58" viewBox="0 0 400 58" fill="none" xmlns="http://www.w3.org/2000/svg">
<path d="M18.6133 31.9564L16.5538 27.3418L2.06646 31.2354C-1.9106 33.4706 0.504052 36.8594 3.84188 35.7779L18.6133 31.9564Z" fill="#104378"/>
<path d="M21.738 39.0225L19.5365 34.48L8.3869 37.5083C5.4042 39.0225 6.32742 42.9161 10.2333 42.0508C14.1392 41.1856 21.738 39.0225 21.738 39.0225Z" fill="#104378"/>
<path d="M27.4714 45.504L15.539 19.7127L7.15785 21.8441C3.32245 22.1283 3.25134 18.5758 6.02143 17.439L18.309 14.526L20.5819 19.7127C42.0319 19.7127 54.1774 13.3181 59.4334 10.7603C63.6381 8.71406 67.4594 10.7604 67.4594 14.526L69.235 33.4964C69.7464 38.1005 67.3647 40.4357 66.1099 41.0278C57.5393 43.2067 39.2902 47.9055 34.8582 49.2696C30.4261 50.6338 28.087 47.3276 27.4714 45.504Z" fill="#104378"/>
<path d="M25.0628 45.8617L22.9991 41.6631L14.6017 44.0115C11.3281 45.8617 13.8901 48.6371 16.0961 48.2813L25.0628 45.8617Z" fill="#104378"/>
<path d="M34.5326 16.3598L31.8296 16.856C30.8338 13.3118 27.8982 3.89439 38.445 1.33297C46.9096 -0.722777 50.324 7.23979 50.893 11.54L48.3323 12.3906C46.682 2.86403 42.2162 2.65319 38.445 3.743C31.3319 5.79858 32.6358 13.0047 34.5326 16.3598Z" fill="#305E90" stroke="#305E90" stroke-linejoin="round"/>
<ellipse cx="40.9183" cy="53.2991" rx="3.58038" ry="3.70825" fill="#104378"/>
<ellipse cx="63.9358" cy="48.4397" rx="3.58038" ry="3.70825" fill="#104378"/>
<mask id="mask0_260_908" style="mask-type:alpha" maskUnits="userSpaceOnUse" x="4" y="10" width="66" height="40">
<path d="M27.5613 45.5963L15.6244 19.8039L7.24007 21.9354C3.40321 22.2197 3.33208 18.667 6.10322 17.5301L18.3954 14.617L20.6692 19.8039C42.1273 19.8039 54.2774 13.4091 59.5354 10.8512C63.7417 8.80483 67.5644 10.8512 67.5644 14.617L69.3408 33.5883C69.8523 38.1925 67.4697 40.5278 66.2144 41.1199C57.6406 43.2989 39.3846 47.9979 34.9509 49.3621C30.5172 50.7263 28.1771 47.42 27.5613 45.5963Z" fill="#305E90"/>
</mask>
<g mask="url(#mask0_260_908)">
<path d="M69.1864 32.4943C51.0858 39.3194 36.3139 28.4978 31.1018 19.7757L29.1123 16.8625L55.9705 10.2546L71.8864 6.63086L74.5154 14.1625V26.8811L69.1864 32.4943Z" fill="#305E90"/>
</g>
<path d="M97.0671 40.5039V18.1039H106.763C108.768 18.1039 110.496 18.4346 111.947 19.0959C113.398 19.7359 114.518 20.6639 115.307 21.8799C116.096 23.0959 116.491 24.5466 116.491 26.2319C116.491 27.8959 116.096 29.3359 115.307 30.5519C114.518 31.7679 113.398 32.7066 111.947 33.3679C110.496 34.0079 108.768 34.3279 106.763 34.3279H99.9471L102.251 31.9919V40.5039H97.0671ZM102.251 32.5679L99.9471 30.1039H106.475C108.075 30.1039 109.27 29.7626 110.059 29.0799C110.848 28.3972 111.243 27.4479 111.243 26.2319C111.243 24.9946 110.848 24.0346 110.059 23.3519C109.27 22.6692 108.075 22.3279 106.475 22.3279H99.9471L102.251 19.8639V32.5679ZM130.244 40.5039V37.1439L129.924 36.4079V30.3919C129.924 29.3252 129.593 28.4932 128.932 27.8959C128.292 27.2986 127.3 26.9999 125.956 26.9999C125.039 26.9999 124.132 27.1492 123.236 27.4479C122.361 27.7252 121.615 28.1092 120.996 28.5999L119.204 25.1119C120.143 24.4506 121.273 23.9386 122.596 23.5759C123.919 23.2132 125.263 23.0319 126.628 23.0319C129.252 23.0319 131.289 23.6506 132.74 24.8879C134.191 26.1252 134.916 28.0559 134.916 30.6799V40.5039H130.244ZM124.996 40.7599C123.652 40.7599 122.5 40.5359 121.54 40.0879C120.58 39.6186 119.844 38.9892 119.332 38.1999C118.82 37.4106 118.564 36.5252 118.564 35.5439C118.564 34.5199 118.809 33.6239 119.3 32.8559C119.812 32.0879 120.612 31.4906 121.7 31.0639C122.788 30.6159 124.207 30.3919 125.956 30.3919H130.532V33.3039H126.5C125.327 33.3039 124.516 33.4959 124.068 33.8799C123.641 34.2639 123.428 34.7439 123.428 35.3199C123.428 35.9599 123.673 36.4719 124.164 36.8559C124.676 37.2186 125.369 37.3999 126.244 37.3999C127.076 37.3999 127.823 37.2079 128.484 36.8239C129.145 36.4186 129.625 35.8319 129.924 35.0639L130.692 37.3679C130.329 38.4772 129.668 39.3199 128.708 39.8959C127.748 40.4719 126.511 40.7599 124.996 40.7599ZM149.898 23.0319C151.263 23.0319 152.479 23.3092 153.546 23.8639C154.634 24.3972 155.487 25.2292 156.106 26.3599C156.725 27.4692 157.034 28.8986 157.034 30.6479V40.5039H152.042V31.4159C152.042 30.0292 151.733 29.0052 151.114 28.3439C150.517 27.6826 149.663 27.3519 148.554 27.3519C147.765 27.3519 147.05 27.5226 146.41 27.8639C145.791 28.1839 145.301 28.6852 144.938 29.3679C144.597 30.0506 144.426 30.9252 144.426 31.9919V40.5039H139.434V23.2879H144.202V28.0559L143.306 26.6159C143.925 25.4639 144.81 24.5786 145.962 23.9599C147.114 23.3412 148.426 23.0319 149.898 23.0319ZM169.78 46.9679C168.159 46.9679 166.591 46.7652 165.076 46.3599C163.583 45.9759 162.335 45.3892 161.332 44.5999L163.316 41.0159C164.041 41.6132 164.959 42.0826 166.068 42.4239C167.199 42.7866 168.308 42.9679 169.396 42.9679C171.167 42.9679 172.447 42.5732 173.236 41.7839C174.047 40.9946 174.452 39.8212 174.452 38.2639V35.6719L174.772 31.3519L174.708 26.9999V23.2879H179.444V37.6239C179.444 40.8239 178.612 43.1812 176.948 44.6959C175.284 46.2106 172.895 46.9679 169.78 46.9679ZM169.012 39.6719C167.412 39.6719 165.961 39.3306 164.66 38.6479C163.38 37.9439 162.345 36.9732 161.556 35.7359C160.788 34.4772 160.404 33.0159 160.404 31.3519C160.404 29.6666 160.788 28.2052 161.556 26.9679C162.345 25.7092 163.38 24.7386 164.66 24.0559C165.961 23.3732 167.412 23.0319 169.012 23.0319C170.463 23.0319 171.743 23.3306 172.852 23.9279C173.961 24.5039 174.825 25.4106 175.444 26.6479C176.063 27.8639 176.372 29.4319 176.372 31.3519C176.372 33.2506 176.063 34.8186 175.444 36.0559C174.825 37.2719 173.961 38.1786 172.852 38.7759C171.743 39.3732 170.463 39.6719 169.012 39.6719ZM170.004 35.5759C170.879 35.5759 171.657 35.4052 172.34 35.0639C173.023 34.7012 173.556 34.1999 173.94 33.5599C174.324 32.9199 174.516 32.1839 174.516 31.3519C174.516 30.4986 174.324 29.7626 173.94 29.1439C173.556 28.5039 173.023 28.0132 172.34 27.6719C171.657 27.3092 170.879 27.1279 170.004 27.1279C169.129 27.1279 168.351 27.3092 167.668 27.6719C166.985 28.0132 166.441 28.5039 166.036 29.1439C165.652 29.7626 165.46 30.4986 165.46 31.3519C165.46 32.1839 165.652 32.9199 166.036 33.5599C166.441 34.1999 166.985 34.7012 167.668 35.0639C168.351 35.4052 169.129 35.5759 170.004 35.5759ZM194.65 40.5039V37.1439L194.33 36.4079V30.3919C194.33 29.3252 193.999 28.4932 193.338 27.8959C192.698 27.2986 191.706 26.9999 190.362 26.9999C189.445 26.9999 188.538 27.1492 187.642 27.4479C186.767 27.7252 186.021 28.1092 185.402 28.5999L183.61 25.1119C184.549 24.4506 185.679 23.9386 187.002 23.5759C188.325 23.2132 189.669 23.0319 191.034 23.0319C193.658 23.0319 195.695 23.6506 197.146 24.8879C198.597 26.1252 199.322 28.0559 199.322 30.6799V40.5039H194.65ZM189.402 40.7599C188.058 40.7599 186.906 40.5359 185.946 40.0879C184.986 39.6186 184.25 38.9892 183.738 38.1999C183.226 37.4106 182.97 36.5252 182.97 35.5439C182.97 34.5199 183.215 33.6239 183.706 32.8559C184.218 32.0879 185.018 31.4906 186.106 31.0639C187.194 30.6159 188.613 30.3919 190.362 30.3919H194.938V33.3039H190.906C189.733 33.3039 188.922 33.4959 188.474 33.8799C188.047 34.2639 187.834 34.7439 187.834 35.3199C187.834 35.9599 188.079 36.4719 188.57 36.8559C189.082 37.2186 189.775 37.3999 190.65 37.3999C191.482 37.3999 192.229 37.2079 192.89 36.8239C193.551 36.4186 194.031 35.8319 194.33 35.0639L195.098 37.3679C194.735 38.4772 194.074 39.3199 193.114 39.8959C192.154 40.4719 190.917 40.7599 189.402 40.7599ZM214.304 23.0319C215.669 23.0319 216.885 23.3092 217.952 23.8639C219.04 24.3972 219.893 25.2292 220.512 26.3599C221.131 27.4692 221.44 28.8986 221.44 30.6479V40.5039H216.448V31.4159C216.448 30.0292 216.139 29.0052 215.52 28.3439C214.923 27.6826 214.069 27.3519 212.96 27.3519C212.171 27.3519 211.456 27.5226 210.816 27.8639C210.197 28.1839 209.707 28.6852 209.344 29.3679C209.003 30.0506 208.832 30.9252 208.832 31.9919V40.5039H203.84V23.2879H208.608V28.0559L207.712 26.6159C208.331 25.4639 209.216 24.5786 210.368 23.9599C211.52 23.3412 212.832 23.0319 214.304 23.0319ZM233.482 40.7599C231.861 40.7599 230.399 40.3972 229.098 39.6719C227.797 38.9252 226.762 37.8906 225.994 36.5679C225.247 35.2452 224.874 33.6879 224.874 31.8959C224.874 30.0826 225.247 28.5146 225.994 27.1919C226.762 25.8692 227.797 24.8452 229.098 24.1199C230.399 23.3946 231.861 23.0319 233.482 23.0319C234.933 23.0319 236.202 23.3519 237.29 23.9919C238.378 24.6319 239.221 25.6026 239.818 26.9039C240.415 28.2052 240.714 29.8692 240.714 31.8959C240.714 33.9012 240.426 35.5652 239.85 36.8879C239.274 38.1892 238.442 39.1599 237.354 39.7999C236.287 40.4399 234.997 40.7599 233.482 40.7599ZM234.346 36.6639C235.157 36.6639 235.893 36.4719 236.554 36.0879C237.215 35.7039 237.738 35.1599 238.122 34.4559C238.527 33.7306 238.73 32.8772 238.73 31.8959C238.73 30.8932 238.527 30.0399 238.122 29.3359C237.738 28.6319 237.215 28.0879 236.554 27.7039C235.893 27.3199 235.157 27.1279 234.346 27.1279C233.514 27.1279 232.767 27.3199 232.106 27.7039C231.445 28.0879 230.911 28.6319 230.506 29.3359C230.122 30.0399 229.93 30.8932 229.93 31.8959C229.93 32.8772 230.122 33.7306 230.506 34.4559C230.911 35.1599 231.445 35.7039 232.106 36.0879C232.767 36.4719 233.514 36.6639 234.346 36.6639ZM238.858 40.5039V36.9839L238.954 31.8639L238.634 26.7759V16.7599H243.626V40.5039H238.858ZM258.806 40.5039V37.1439L258.486 36.4079V30.3919C258.486 29.3252 258.156 28.4932 257.494 27.8959C256.854 27.2986 255.862 26.9999 254.518 26.9999C253.601 26.9999 252.694 27.1492 251.798 27.4479C250.924 27.7252 250.177 28.1092 249.558 28.5999L247.766 25.1119C248.705 24.4506 249.836 23.9386 251.158 23.5759C252.481 23.2132 253.825 23.0319 255.19 23.0319C257.814 23.0319 259.852 23.6506 261.302 24.8879C262.753 26.1252 263.478 28.0559 263.478 30.6799V40.5039H258.806ZM253.558 40.7599C252.214 40.7599 251.062 40.5359 250.102 40.0879C249.142 39.6186 248.406 38.9892 247.894 38.1999C247.382 37.4106 247.126 36.5252 247.126 35.5439C247.126 34.5199 247.372 33.6239 247.862 32.8559C248.374 32.0879 249.174 31.4906 250.262 31.0639C251.35 30.6159 252.769 30.3919 254.518 30.3919H259.094V33.3039H255.062C253.889 33.3039 253.078 33.4959 252.63 33.8799C252.204 34.2639 251.99 34.7439 251.99 35.3199C251.99 35.9599 252.236 36.4719 252.726 36.8559C253.238 37.2186 253.932 37.3999 254.806 37.3999C255.638 37.3999 256.385 37.2079 257.046 36.8239C257.708 36.4186 258.188 35.8319 258.486 35.0639L259.254 37.3679C258.892 38.4772 258.23 39.3199 257.27 39.8959C256.31 40.4719 255.073 40.7599 253.558 40.7599ZM267.996 40.5039V23.2879H272.764V28.1519L272.092 26.7439C272.604 25.5279 273.426 24.6106 274.556 23.9919C275.687 23.3519 277.063 23.0319 278.684 23.0319V27.6399C278.471 27.6186 278.279 27.6079 278.108 27.6079C277.938 27.5866 277.756 27.5759 277.564 27.5759C276.199 27.5759 275.09 27.9706 274.236 28.7599C273.404 29.5279 272.988 30.7332 272.988 32.3759V40.5039H267.996ZM291.088 40.5039V37.1439L290.768 36.4079V30.3919C290.768 29.3252 290.437 28.4932 289.776 27.8959C289.136 27.2986 288.144 26.9999 286.8 26.9999C285.882 26.9999 284.976 27.1492 284.08 27.4479C283.205 27.7252 282.458 28.1092 281.84 28.5999L280.048 25.1119C280.986 24.4506 282.117 23.9386 283.44 23.5759C284.762 23.2132 286.106 23.0319 287.472 23.0319C290.096 23.0319 292.133 23.6506 293.584 24.8879C295.034 26.1252 295.76 28.0559 295.76 30.6799V40.5039H291.088ZM285.84 40.7599C284.496 40.7599 283.344 40.5359 282.384 40.0879C281.424 39.6186 280.688 38.9892 280.176 38.1999C279.664 37.4106 279.408 36.5252 279.408 35.5439C279.408 34.5199 279.653 33.6239 280.144 32.8559C280.656 32.0879 281.456 31.4906 282.544 31.0639C283.632 30.6159 285.05 30.3919 286.8 30.3919H291.376V33.3039H287.344C286.17 33.3039 285.36 33.4959 284.912 33.8799C284.485 34.2639 284.272 34.7439 284.272 35.3199C284.272 35.9599 284.517 36.4719 285.008 36.8559C285.52 37.2186 286.213 37.3999 287.088 37.3999C287.92 37.3999 288.666 37.2079 289.328 36.8239C289.989 36.4186 290.469 35.8319 290.768 35.0639L291.536 37.3679C291.173 38.4772 290.512 39.3199 289.552 39.8959C288.592 40.4719 287.354 40.7599 285.84 40.7599ZM310.742 23.0319C312.107 23.0319 313.323 23.3092 314.39 23.8639C315.478 24.3972 316.331 25.2292 316.95 26.3599C317.568 27.4692 317.878 28.8986 317.878 30.6479V40.5039H312.886V31.4159C312.886 30.0292 312.576 29.0052 311.958 28.3439C311.36 27.6826 310.507 27.3519 309.398 27.3519C308.608 27.3519 307.894 27.5226 307.254 27.8639C306.635 28.1839 306.144 28.6852 305.782 29.3679C305.44 30.0506 305.27 30.9252 305.27 31.9919V40.5039H300.278V23.2879H305.046V28.0559L304.15 26.6159C304.768 25.4639 305.654 24.5786 306.806 23.9599C307.958 23.3412 309.27 23.0319 310.742 23.0319Z" fill="#62CDFF"/>
<path d="M322.755 40.5039V18.1039H327.043L336.579 33.9119H334.307L343.683 18.1039H347.939L348.003 40.5039H343.139L343.107 25.5599H344.003L336.515 38.1359H334.179L326.531 25.5599H327.619V40.5039H322.755ZM363.525 40.5039V37.1439L363.205 36.4079V30.3919C363.205 29.3252 362.874 28.4932 362.213 27.8959C361.573 27.2986 360.581 26.9999 359.237 26.9999C358.32 26.9999 357.413 27.1492 356.517 27.4479C355.642 27.7252 354.896 28.1092 354.277 28.5999L352.485 25.1119C353.424 24.4506 354.554 23.9386 355.877 23.5759C357.2 23.2132 358.544 23.0319 359.909 23.0319C362.533 23.0319 364.57 23.6506 366.021 24.8879C367.472 26.1252 368.197 28.0559 368.197 30.6799V40.5039H363.525ZM358.277 40.7599C356.933 40.7599 355.781 40.5359 354.821 40.0879C353.861 39.6186 353.125 38.9892 352.613 38.1999C352.101 37.4106 351.845 36.5252 351.845 35.5439C351.845 34.5199 352.09 33.6239 352.581 32.8559C353.093 32.0879 353.893 31.4906 354.981 31.0639C356.069 30.6159 357.488 30.3919 359.237 30.3919H363.813V33.3039H359.781C358.608 33.3039 357.797 33.4959 357.349 33.8799C356.922 34.2639 356.709 34.7439 356.709 35.3199C356.709 35.9599 356.954 36.4719 357.445 36.8559C357.957 37.2186 358.65 37.3999 359.525 37.3999C360.357 37.3999 361.104 37.2079 361.765 36.8239C362.426 36.4186 362.906 35.8319 363.205 35.0639L363.973 37.3679C363.61 38.4772 362.949 39.3199 361.989 39.8959C361.029 40.4719 359.792 40.7599 358.277 40.7599ZM372.715 40.5039V23.2879H377.483V28.1519L376.811 26.7439C377.323 25.5279 378.144 24.6106 379.275 23.9919C380.406 23.3519 381.782 23.0319 383.403 23.0319V27.6399C383.19 27.6186 382.998 27.6079 382.827 27.6079C382.656 27.5866 382.475 27.5759 382.283 27.5759C380.918 27.5759 379.808 27.9706 378.955 28.7599C378.123 29.5279 377.707 30.7332 377.707 32.3759V40.5039H372.715ZM394.005 40.7599C391.978 40.7599 390.4 40.2479 389.269 39.2239C388.138 38.1786 387.573 36.6319 387.573 34.5839V19.4799H392.565V34.5199C392.565 35.2452 392.757 35.8106 393.141 36.2159C393.525 36.5999 394.048 36.7919 394.709 36.7919C395.498 36.7919 396.17 36.5786 396.725 36.1519L398.069 39.6719C397.557 40.0346 396.938 40.3119 396.213 40.5039C395.509 40.6746 394.773 40.7599 394.005 40.7599ZM384.917 27.5119V23.6719H396.853V27.5119H384.917Z" fill="#2C5C73"/>
</svg>
